<mxfile host="app.diagrams.net" modified="2023-07-07T13:38:47.671Z" agent="Mozilla/5.0 (Windows NT 10.0; Win64; x64) AppleWebKit/537.36 (KHTML, like Gecko) Chrome/114.0.0.0 Safari/537.36" version="21.6.1" etag="DiYDlsTWs6nPU9XHJN8w" type="github">
  <diagram name="第 1 页" id="r-xb-z3K0kBVe9x5xZh-">
    <mxGraphModel>
      <root>
        <mxCell id="0" />
        <mxCell id="1" parent="0" />
      </root>
    </mxGraphModel>
  </diagram>
</mxfile>
